<?xml version="1.0" encoding="UTF-8" standalone="no"?>
<!-- Created with Inkscape (http://www.inkscape.org/) -->

<svg
   width="1024"
   height="1024"
   viewBox="0 0 270.93333 270.93333"
   version="1.1"
   id="svg1"
   inkscape:export-filename="bitmap.png"
   inkscape:export-xdpi="96"
   inkscape:export-ydpi="96"
   inkscape:version="1.3 (0e150ed6c4, 2023-07-21)"
   sodipodi:docname="logo.svg"
   xmlns:inkscape="http://www.inkscape.org/namespaces/inkscape"
   xmlns:sodipodi="http://sodipodi.sourceforge.net/DTD/sodipodi-0.dtd"
   xmlns="http://www.w3.org/2000/svg"
   xmlns:svg="http://www.w3.org/2000/svg">
  <sodipodi:namedview
     id="namedview1"
     pagecolor="#ffffff"
     bordercolor="#666666"
     borderopacity="1.0"
     inkscape:showpageshadow="2"
     inkscape:pageopacity="0.0"
     inkscape:pagecheckerboard="0"
     inkscape:deskcolor="#d1d1d1"
     inkscape:document-units="px"
     inkscape:zoom="0.46340947"
     inkscape:cx="622.55957"
     inkscape:cy="867.48336"
     inkscape:window-width="1920"
     inkscape:window-height="1007"
     inkscape:window-x="0"
     inkscape:window-y="0"
     inkscape:window-maximized="1"
     inkscape:current-layer="layer1" />
  <defs
     id="defs1" />
  <g
     inkscape:label="Layer 1"
     inkscape:groupmode="layer"
     id="layer1">
    <path
       fill="#bdddf4"
       d="m 243.70797,126.51632 c 0,-12.3985 -9.45609,-22.58286 -21.54677,-23.75263 -2.67058,-12.016619 -13.37387,-21.007442 -26.19568,-21.007442 -14.83296,0 -26.85507,10.623103 -26.85507,25.456552 0,3.44954 0.74546,8.67152 3.34498,11.29447 -9.73351,0.54925 -23.95174,0.847 -36.16783,-0.89773 0,0 14.37035,11.43172 45.82365,11.89132 -0.45111,0.93382 -0.75787,4.26707 -0.91352,5.32935 -0.74321,0.008 -1.77545,0.0226 -3.13612,0.0226 -23.87112,0 -41.77447,-2.37224 -41.77447,-2.37224 0,0 8.95173,9.65025 45.96992,12.25233 -1.21145,0.38233 -1.21145,5.65171 -1.21145,5.65171 -23.87123,0 -44.75847,-2.98399 -44.75847,-2.98399 10.03192,8.36115 20.06361,12.03445 26.94453,13.6488 -0.0338,0.42407 -0.0903,0.83797 -0.0903,1.27114 0,9.88609 8.01479,14.92008 17.90337,14.92008 1.45314,0 2.85857,-0.19059 4.21325,-0.51879 4.76533,7.48089 13.11426,12.45523 22.64183,12.45523 14.83297,0 26.85507,-12.02248 26.85507,-26.85606 0,-5.33535 -1.57256,-10.29174 -4.25803,-14.47536 7.82374,-3.91499 13.20979,-11.98674 13.20979,-21.33269 z"
       id="path1-6"
       style="stroke-width:0.264583"
       inkscape:label="dashing_away" />
    <g
       id="g1"
       transform="matrix(1.3533333,0,0,1.3533333,9.321888,-65.50333)"
       style="stroke-width:0.738917"
       inkscape:label="infinity">
      <circle
         fill="#6b73db"
         cx="52.916668"
         cy="148.5"
         id="circle1"
         style="stroke-width:0.195504;fill-opacity:1"
         r="39.6875"
         inkscape:label="circle" />
      <path
         fill="#ffffff"
         d="m 69.59646,133.71752 c -4.665497,0 -9.249404,2.91484 -12.785998,5.97959 1.342755,1.47506 2.251163,2.64143 2.528975,3.00743 0.379254,0.5005 0.932656,1.17741 1.616155,1.94469 2.725214,-2.39007 5.928877,-4.50674 8.640868,-4.50674 4.608155,0 8.35641,3.74827 8.35641,8.35643 0,4.60816 -3.748255,8.35643 -8.35641,8.35643 -5.152772,0 -12.091466,-7.62 -14.115529,-10.2923 -0.992188,-1.3141 -9.968177,-12.84553 -19.246238,-12.84553 -8.151367,0 -14.783593,6.63223 -14.783593,14.78361 0,8.15137 6.632226,14.78136 14.783593,14.78136 4.530993,0 8.980401,-2.75167 12.472902,-5.71941 -1.477259,-1.6007 -2.47385,-2.88172 -2.7671,-3.26979 -0.332917,-0.43874 -0.807,-1.01863 -1.375834,-1.66908 -2.654649,2.27542 -5.719409,4.23114 -8.329968,4.23114 -4.608158,0 -8.356425,-3.74827 -8.356425,-8.35643 0,-4.60816 3.748267,-8.35643 8.356425,-8.35643 5.154968,0 12.09146,7.62 14.115527,10.2923 0.992183,1.3141 9.968173,12.84553 19.24624,12.84553 8.151361,0 14.781382,-6.63002 14.781382,-14.7814 0.0024,-8.14917 -6.627814,-14.7814 -14.781382,-14.7814 z"
         id="path1"
         style="stroke-width:0.195504"
         inkscape:label="path" />
    </g>
  </g>
</svg>
