<svg xmlns="http://www.w3.org/2000/svg" width="1024" height="1024" viewBox="0 0 270.933 270.933"><path fill="#bdddf4" d="M243.708 126.516c0-12.398-9.456-22.583-21.547-23.752-2.67-12.017-13.374-21.008-26.195-21.008-14.833 0-26.856 10.623-26.856 25.457 0 3.45.746 8.671 3.345 11.294-9.733.55-23.951.847-36.167-.897 0 0 14.37 11.431 45.823 11.89-.45.935-.758 4.268-.913 5.33-.743.008-1.776.023-3.136.023-23.872 0-41.775-2.372-41.775-2.372s8.952 9.65 45.97 12.252c-1.211.382-1.211 5.652-1.211 5.652-23.872 0-44.759-2.984-44.759-2.984 10.032 8.36 20.064 12.034 26.945 13.648-.034.424-.09.838-.09 1.272 0 9.886 8.014 14.92 17.903 14.92 1.453 0 2.858-.19 4.213-.52 4.765 7.482 13.114 12.456 22.642 12.456 14.833 0 26.855-12.022 26.855-26.856a26.693 26.693 0 0 0-4.258-14.475c7.824-3.915 13.21-11.987 13.21-21.333z" style="stroke-width:.264583"/><g style="stroke-width:.738917" transform="translate(9.322 -65.503) scale(1.35333)"><circle cx="52.917" cy="148.5" r="39.688" fill="#6b73db" style="stroke-width:.195504;fill-opacity:1"/><path fill="#fff" d="M69.596 133.718c-4.665 0-9.249 2.914-12.786 5.98a46.484 46.484 0 0 1 2.53 3.007c.379.5.932 1.177 1.616 1.944 2.725-2.39 5.928-4.507 8.64-4.507 4.609 0 8.357 3.749 8.357 8.357 0 4.608-3.748 8.356-8.357 8.356-5.152 0-12.091-7.62-14.115-10.292-.992-1.314-9.968-12.845-19.246-12.845-8.152 0-14.784 6.632-14.784 14.783s6.632 14.781 14.784 14.781c4.53 0 8.98-2.751 12.473-5.719a46.351 46.351 0 0 1-2.768-3.27 32.536 32.536 0 0 0-1.375-1.669c-2.655 2.276-5.72 4.231-8.33 4.231-4.608 0-8.357-3.748-8.357-8.356s3.749-8.357 8.357-8.357c5.155 0 12.091 7.62 14.115 10.293.992 1.314 9.968 12.845 19.246 12.845 8.152 0 14.782-6.63 14.782-14.781.002-8.15-6.628-14.781-14.782-14.781z" style="stroke-width:.195504"/></g></svg>