<svg xmlns="http://www.w3.org/2000/svg" width="500" height="500" style="background-color:#262a2b" version="1.2"><path d="M.5.5h499v499H.5z" style="fill:#262a2b;stroke:#000;stroke-width:.999999;paint-order:stroke fill markers"/><path d="M429 141.2q-3.4 0-5.2-1.8-1.8-2-1.8-5.4V97.2h-36.2q-3.4 0-5.2-1.8-1.8-1.8-1.8-5t1.8-5q1.8-1.8 5.2-1.8H422V48q0-3.6 1.8-5.4 1.8-1.8 5.4-1.8 3.4 0 5 1.8 1.8 1.8 1.8 5.4v35.6h36.2q3.4 0 5.2 1.8 1.8 1.8 1.8 5t-1.8 5q-1.8 1.8-5.2 1.8H436V134q0 3.4-1.8 5.4-1.6 1.8-5.2 1.8z" style="font-size:200px;font-family:Nunito;-inkscape-font-specification:&quot;Nunito, @wght=500&quot;;font-variation-settings:&quot;wght&quot;500;white-space:pre;fill:#7289da"/><path d="M258.8 354.4q-5.1 0-7.2-3.3-2.1-3.3-.9-9.3l8.7-45.6 9.6 2.1h-24.6q-3.6 0-6.3-.9-2.7-1.2-4.2-3.3-1.2-2.1-1.2-5.4 0-4.5 3-6.9 3.3-2.4 8.7-2.4h28.2l-10.5 2.1 14.4-72.9 7.5 2.7h-33.6q-3.6 0-6.3-1.2-2.7-1.2-4.2-3.3-1.2-2.1-1.2-5.1 0-4.8 3-6.9 3.3-2.4 8.7-2.4h37.2l-8.7 2.4 9-45.9q.9-5.4 3.9-7.8 3.3-2.4 8.1-2.4t6.9 3.3q2.1 3.3 1.2 9.3l-8.1 41.1h45.3l8.7-43.5q.9-5.4 3.9-7.8 3.3-2.4 8.1-2.4 5.1 0 7.2 3.3 2.1 3.3.9 9.3l-8.4 43.5-7.5-2.4h22.5q3.9 0 6.3 1.2 2.7.9 3.9 3 1.5 1.8 1.5 5.1 0 4.5-3 7.2-3 2.4-8.7 2.4h-26.4l8.7-2.7-14.4 73.2-7.5-2.4h33.6q3.6 0 6.3 1.2 2.7.9 3.9 3 1.5 2.1 1.5 5.1 0 4.8-3 7.2-3 2.4-8.7 2.4h-37.2l8.7-2.1-9.6 48q-.9 5.4-3.9 7.8-3 2.4-7.8 2.4-5.1 0-7.5-3.3-2.1-3.3-.9-9.3l8.7-43.5h-45.3l-9 45.9q-.9 5.4-3.9 7.8-3 2.4-8.1 2.4zm24.3-75h45.3l13.2-68.1h-45z" style="font-family:Nunito;-inkscape-font-specification:&quot;Nunito, @wght=500&quot;;font-variation-settings:&quot;wght&quot;500;white-space:pre;display:inline;fill:#fff;stroke:#7289da;stroke-width:10;stroke-linejoin:round;paint-order:stroke fill markers"/><path d="M38.9 352.3q-7.2 0-11.1-3.9-3.9-3.9-3.9-11.1V155.8q0-7.2 3.9-11.1 3.9-3.9 11.1-3.9h57.9q51.9 0 79.8 27.3 28.2 27 28.2 78.3 0 25.5-7.2 45.3-7.2 19.8-21 33.3-13.8 13.2-33.9 20.4-19.8 6.9-45.9 6.9zm12.9-23.7H95q20.4 0 35.4-5.1t24.9-15.3q10.2-10.2 15.3-25.5 5.1-15.6 5.1-36.3 0-41.1-20.4-61.5-20.1-20.4-60.3-20.4H51.8Z" style="font-family:Nunito;-inkscape-font-specification:&quot;Nunito, @wght=500&quot;;font-variation-settings:&quot;wght&quot;500;white-space:pre;fill:#fff;stroke:#7289da;stroke-width:10;stroke-linejoin:round;paint-order:stroke fill markers"/><g style="stroke-width:.172357"><path fill="#ccd6dd" d="M31 32a4 4 0 0 1-4 4H5a4 4 0 0 1-4-4V4a4 4 0 0 1 4-4h22a4 4 0 0 1 4 4z" style="stroke-width:.118828" transform="translate(269.198 267) scale(5.80189)"/><path fill="#99aab5" d="M27 24a1 1 0 0 1-1 1H6a1 1 0 1 1 0-2h20a1 1 0 0 1 1 1zm-16 4a1 1 0 0 1-1 1H6a1 1 0 1 1 0-2h4a1 1 0 0 1 1 1zM27 8a1 1 0 0 1-1 1H6a1 1 0 0 1 0-2h20a1 1 0 0 1 1 1zm0 4a1 1 0 0 1-1 1H6a1 1 0 1 1 0-2h20a1 1 0 0 1 1 1zm0 4a1 1 0 0 1-1 1H6a1 1 0 1 1 0-2h20a1 1 0 0 1 1 1zm0 4a1 1 0 0 1-1 1H6a1 1 0 1 1 0-2h20a1 1 0 0 1 1 1z" style="stroke-width:.118828" transform="translate(269.198 267) scale(5.80189)"/><path fill="#66757f" d="M31 6.272c-.827-.535-1.837-.579-2.521-.023l-.792.646-1.484 1.211-.1.08-2.376 1.938-11.878 9.686c-.437.357-.793 1.219-1.173 2.074-.378.85-.969 2.852-1.443 4.391-.148.25-1.065 1.846-.551 2.453.52.615 2.326.01 2.568-.076 1.626-.174 3.731-.373 4.648-.58.924-.211 1.854-.395 2.291-.752.008-.006.01-.018.017-.023l11.858-9.666.792-.646.144-.118Z" style="stroke-width:.118828" transform="translate(269.198 267) scale(5.80189)"/><path fill="#d99e82" d="M18.145 22.526s-1.274-1.881-2.117-2.553c-.672-.843-2.549-2.116-2.549-2.116-.448-.446-1.191-.48-1.629-.043-.437.438-.793 1.366-1.173 2.291-.472 1.146-1.276 4.154-1.768 5.752-.083.272.517-.45.503-.21-.01.187.027.394.074.581l-.146.159.208.067c.025.082.05.154.068.21l.159-.146c.187.047.394.084.58.074.24-.014-.483.587-.21.503 1.598-.493 4.607-1.296 5.752-1.768.924-.381 1.854-.736 2.291-1.174.439-.435.406-1.178-.043-1.627z" style="stroke-width:.118828" transform="translate(269.198 267) scale(5.80189)"/><path fill="#ea596e" d="M25.312 4.351a2.238 2.238 0 0 0 0 3.168l3.167 3.168a2.242 2.242 0 0 0 3.168 0l3.169-3.168a2.242 2.242 0 0 0 0-3.168l-3.169-3.168a2.24 2.24 0 0 0-3.168 0z" style="stroke-width:.118828" transform="translate(269.198 267) scale(5.80189)"/><path fill="#ffcc4d" d="m11.849 17.815 3.17 3.17 3.165 3.166 11.881-11.879-6.337-6.336z" style="stroke-width:.118828" transform="translate(269.198 267) scale(5.80189)"/><path fill="#292f33" d="M11.298 26.742s-2.06 1.133-2.616.576c-.557-.558.581-2.611.581-2.611s1.951.036 2.035 2.035z" style="stroke-width:.118828" transform="translate(269.198 267) scale(5.80189)"/><path fill="#ccd6dd" d="m23.728 5.935 3.96-3.96 6.336 6.337-3.96 3.96z" style="stroke-width:.118828" transform="translate(269.198 267) scale(5.80189)"/><path fill="#99aab5" d="m26.103 3.558.792-.792 6.336 6.335-.792.792zM24.52 5.142l.791-.791 6.336 6.335-.792.792z" style="stroke-width:.118828" transform="translate(269.198 267) scale(5.80189)"/></g></svg>